<mxfile host="Electron" modified="2023-06-09T07:17:25.765Z" agent="Mozilla/5.0 (Windows NT 10.0; Win64; x64) AppleWebKit/537.36 (KHTML, like Gecko) draw.io/21.2.8 Chrome/112.0.5615.165 Electron/24.2.0 Safari/537.36" etag="OIEfB-699YhXuZL2hnxo" version="21.2.8" type="device">
  <diagram id="O9_QfllvU-DZcfSmcwJQ" name="第1頁">
    <mxGraphModel dx="810" dy="473" grid="1" gridSize="10" guides="1" tooltips="1" connect="1" arrows="1" fold="1" page="1" pageScale="1" pageWidth="827" pageHeight="1169" math="0" shadow="0">
      <root>
        <mxCell id="0" />
        <mxCell id="1" parent="0" />
        <mxCell id="ptqY07Z1eheuPru2nALc-1" value="&lt;font color=&quot;#516a8f&quot;&gt;訪客與會員&lt;/font&gt;" style="swimlane;html=1;startSize=20;fillColor=#dae8fc;strokeColor=#516A8F;" parent="1" vertex="1">
          <mxGeometry x="180" y="80" width="250" height="520" as="geometry" />
        </mxCell>
        <mxCell id="ptqY07Z1eheuPru2nALc-2" value="&lt;font color=&quot;#516a8f&quot;&gt;修改會員資料&lt;/font&gt;" style="rounded=1;whiteSpace=wrap;html=1;shadow=0;comic=0;labelBackgroundColor=none;strokeWidth=1;fontFamily=Verdana;fontSize=12;align=center;arcSize=15;fillColor=#dae8fc;strokeColor=#516A8F;glass=0;" parent="ptqY07Z1eheuPru2nALc-1" vertex="1">
          <mxGeometry x="76" y="115" width="100" height="30" as="geometry" />
        </mxCell>
        <mxCell id="ptqY07Z1eheuPru2nALc-14" value="&lt;font color=&quot;#516a8f&quot;&gt;系統&lt;/font&gt;" style="swimlane;html=1;startSize=20;fillColor=#dae8fc;strokeColor=#516A8F;" parent="1" vertex="1">
          <mxGeometry x="430" y="80" width="250" height="520" as="geometry" />
        </mxCell>
        <mxCell id="ptqY07Z1eheuPru2nALc-5" value="" style="ellipse;whiteSpace=wrap;html=1;rounded=0;shadow=0;comic=0;labelBackgroundColor=none;strokeWidth=1;fillColor=#d5e8d4;fontFamily=Verdana;fontSize=12;align=center;strokeColor=#82b366;" parent="ptqY07Z1eheuPru2nALc-14" vertex="1">
          <mxGeometry x="110" y="50" width="30" height="30" as="geometry" />
        </mxCell>
        <mxCell id="ptqY07Z1eheuPru2nALc-6" value="&lt;font color=&quot;#516a8f&quot;&gt;顯示修改&lt;br&gt;會員資料畫面&lt;/font&gt;" style="rounded=1;whiteSpace=wrap;html=1;shadow=0;comic=0;labelBackgroundColor=none;strokeWidth=1;fontFamily=Verdana;fontSize=12;align=center;arcSize=15;fillColor=#dae8fc;strokeColor=#516A8F;glass=0;" parent="ptqY07Z1eheuPru2nALc-14" vertex="1">
          <mxGeometry x="75" y="110" width="100" height="40" as="geometry" />
        </mxCell>
        <mxCell id="ptqY07Z1eheuPru2nALc-7" style="edgeStyle=none;rounded=0;html=1;labelBackgroundColor=none;startArrow=none;startFill=0;startSize=5;endArrow=classic;endFill=1;endSize=5;jettySize=auto;orthogonalLoop=1;strokeWidth=1;fontFamily=Verdana;fontSize=12;exitX=0.5;exitY=1;exitDx=0;exitDy=0;strokeColor=#516A8F;arcSize=20;entryX=0.5;entryY=0;entryDx=0;entryDy=0;" parent="ptqY07Z1eheuPru2nALc-14" source="ptqY07Z1eheuPru2nALc-5" target="ptqY07Z1eheuPru2nALc-6" edge="1">
          <mxGeometry relative="1" as="geometry">
            <mxPoint x="-160.44999999999982" y="259.9999999999998" as="sourcePoint" />
          </mxGeometry>
        </mxCell>
        <mxCell id="iftz9GtStMuBRDhdT18l-2" value="&lt;font color=&quot;#516a8f&quot;&gt;驗證資料&lt;br&gt;是否正確&lt;/font&gt;" style="rounded=1;whiteSpace=wrap;html=1;shadow=0;comic=0;labelBackgroundColor=none;strokeWidth=1;fontFamily=Verdana;fontSize=12;align=center;arcSize=15;fillColor=#dae8fc;strokeColor=#516A8F;glass=0;" vertex="1" parent="ptqY07Z1eheuPru2nALc-14">
          <mxGeometry x="75" y="200" width="100" height="40" as="geometry" />
        </mxCell>
        <mxCell id="iftz9GtStMuBRDhdT18l-11" value="&lt;font color=&quot;#516a8f&quot;&gt;保存資料&lt;br&gt;至資料庫&lt;/font&gt;" style="rounded=1;whiteSpace=wrap;html=1;shadow=0;comic=0;labelBackgroundColor=none;strokeWidth=1;fontFamily=Verdana;fontSize=12;align=center;arcSize=15;fillColor=#dae8fc;strokeColor=#516A8F;glass=0;" vertex="1" parent="ptqY07Z1eheuPru2nALc-14">
          <mxGeometry x="75" y="380" width="100" height="40" as="geometry" />
        </mxCell>
        <mxCell id="ptqY07Z1eheuPru2nALc-35" value="" style="group" parent="ptqY07Z1eheuPru2nALc-14" vertex="1" connectable="0">
          <mxGeometry x="109" y="460" width="32" height="32" as="geometry" />
        </mxCell>
        <mxCell id="ptqY07Z1eheuPru2nALc-36" value="" style="ellipse;whiteSpace=wrap;html=1;aspect=fixed;fillColor=#b85450;strokeColor=#f8cecc;" parent="ptqY07Z1eheuPru2nALc-35" vertex="1">
          <mxGeometry x="1" y="1" width="30" height="30" as="geometry" />
        </mxCell>
        <mxCell id="ptqY07Z1eheuPru2nALc-37" value="" style="ellipse;whiteSpace=wrap;html=1;aspect=fixed;fillColor=none;strokeColor=#B85450;" parent="ptqY07Z1eheuPru2nALc-35" vertex="1">
          <mxGeometry width="32" height="32" as="geometry" />
        </mxCell>
        <mxCell id="ptqY07Z1eheuPru2nALc-34" style="edgeStyle=none;rounded=0;html=1;labelBackgroundColor=none;startArrow=none;startFill=0;startSize=5;endArrow=classic;endFill=1;endSize=5;jettySize=auto;orthogonalLoop=1;strokeWidth=1;fontFamily=Verdana;fontSize=12;exitX=0.5;exitY=1;exitDx=0;exitDy=0;strokeColor=#516A8F;arcSize=20;entryX=0.5;entryY=0;entryDx=0;entryDy=0;" parent="ptqY07Z1eheuPru2nALc-14" source="iftz9GtStMuBRDhdT18l-11" edge="1" target="ptqY07Z1eheuPru2nALc-37">
          <mxGeometry relative="1" as="geometry">
            <mxPoint x="124" y="423" as="sourcePoint" />
            <mxPoint x="124" y="473" as="targetPoint" />
          </mxGeometry>
        </mxCell>
        <mxCell id="ptqY07Z1eheuPru2nALc-28" style="edgeStyle=none;rounded=1;html=1;labelBackgroundColor=none;startArrow=none;startFill=0;startSize=5;endArrow=classic;endFill=1;endSize=5;jettySize=auto;orthogonalLoop=1;strokeWidth=1;fontFamily=Verdana;fontSize=12;strokeColor=#516A8F;arcSize=15;exitX=0.5;exitY=1;exitDx=0;exitDy=0;entryX=0;entryY=0.5;entryDx=0;entryDy=0;" parent="1" source="ptqY07Z1eheuPru2nALc-2" target="iftz9GtStMuBRDhdT18l-2" edge="1">
          <mxGeometry relative="1" as="geometry">
            <mxPoint x="355" y="335" as="sourcePoint" />
            <mxPoint x="555" y="285" as="targetPoint" />
            <Array as="points">
              <mxPoint x="306" y="300" />
            </Array>
          </mxGeometry>
        </mxCell>
        <mxCell id="ptqY07Z1eheuPru2nALc-8" style="edgeStyle=none;rounded=0;html=1;labelBackgroundColor=none;startArrow=none;startFill=0;startSize=5;endArrow=classic;endFill=1;endSize=5;jettySize=auto;orthogonalLoop=1;strokeWidth=1;fontFamily=Verdana;fontSize=12;exitX=0;exitY=0.5;exitDx=0;exitDy=0;strokeColor=#516A8F;arcSize=20;" parent="1" source="iftz9GtStMuBRDhdT18l-9" target="ptqY07Z1eheuPru2nALc-2" edge="1">
          <mxGeometry relative="1" as="geometry">
            <mxPoint x="365" y="225" as="sourcePoint" />
            <mxPoint x="525" y="225" as="targetPoint" />
          </mxGeometry>
        </mxCell>
        <mxCell id="iftz9GtStMuBRDhdT18l-3" value="" style="rhombus;whiteSpace=wrap;html=1;fillColor=#fff2cc;strokeColor=#d6b656;" vertex="1" parent="1">
          <mxGeometry x="535" y="360" width="40" height="40" as="geometry" />
        </mxCell>
        <mxCell id="iftz9GtStMuBRDhdT18l-4" style="edgeStyle=none;rounded=0;html=1;labelBackgroundColor=none;startArrow=none;startFill=0;startSize=5;endArrow=classic;endFill=1;endSize=5;jettySize=auto;orthogonalLoop=1;strokeWidth=1;fontFamily=Verdana;fontSize=12;exitX=0.5;exitY=1;exitDx=0;exitDy=0;strokeColor=#82b366;arcSize=20;fillColor=#d5e8d4;entryX=0.5;entryY=0;entryDx=0;entryDy=0;" edge="1" parent="1" source="iftz9GtStMuBRDhdT18l-3" target="iftz9GtStMuBRDhdT18l-11">
          <mxGeometry relative="1" as="geometry">
            <mxPoint x="549.71" y="500" as="sourcePoint" />
            <mxPoint x="555" y="450" as="targetPoint" />
          </mxGeometry>
        </mxCell>
        <mxCell id="iftz9GtStMuBRDhdT18l-5" value="&lt;font color=&quot;#82b366&quot;&gt;驗證成功&lt;/font&gt;" style="edgeLabel;html=1;align=center;verticalAlign=middle;resizable=0;points=[];" vertex="1" connectable="0" parent="iftz9GtStMuBRDhdT18l-4">
          <mxGeometry x="-0.05" y="24" relative="1" as="geometry">
            <mxPoint as="offset" />
          </mxGeometry>
        </mxCell>
        <mxCell id="iftz9GtStMuBRDhdT18l-6" style="edgeStyle=none;rounded=1;html=1;labelBackgroundColor=none;startArrow=none;startFill=0;startSize=5;endArrow=classic;endFill=1;endSize=5;jettySize=auto;orthogonalLoop=1;strokeWidth=1;fontFamily=Verdana;fontSize=12;exitX=0;exitY=0.5;exitDx=0;exitDy=0;strokeColor=#b85450;arcSize=15;fillColor=#f8cecc;entryX=0.5;entryY=1;entryDx=0;entryDy=0;" edge="1" parent="1" source="iftz9GtStMuBRDhdT18l-3" target="iftz9GtStMuBRDhdT18l-9">
          <mxGeometry relative="1" as="geometry">
            <mxPoint x="570" y="590" as="sourcePoint" />
            <mxPoint x="390" y="325" as="targetPoint" />
            <Array as="points">
              <mxPoint x="390" y="380" />
            </Array>
          </mxGeometry>
        </mxCell>
        <mxCell id="iftz9GtStMuBRDhdT18l-7" value="&lt;font color=&quot;#b85450&quot;&gt;驗證失敗&lt;/font&gt;" style="edgeLabel;html=1;align=center;verticalAlign=middle;resizable=0;points=[];" vertex="1" connectable="0" parent="iftz9GtStMuBRDhdT18l-6">
          <mxGeometry x="-0.81" y="-9" relative="1" as="geometry">
            <mxPoint as="offset" />
          </mxGeometry>
        </mxCell>
        <mxCell id="iftz9GtStMuBRDhdT18l-8" style="edgeStyle=none;rounded=0;html=1;labelBackgroundColor=none;startArrow=none;startFill=0;startSize=5;endArrow=classic;endFill=1;endSize=5;jettySize=auto;orthogonalLoop=1;strokeWidth=1;fontFamily=Verdana;fontSize=12;exitX=0.5;exitY=1;exitDx=0;exitDy=0;strokeColor=#516A8F;arcSize=20;entryX=0.5;entryY=0;entryDx=0;entryDy=0;" edge="1" parent="1" source="iftz9GtStMuBRDhdT18l-2" target="iftz9GtStMuBRDhdT18l-3">
          <mxGeometry relative="1" as="geometry">
            <mxPoint x="554.71" y="350" as="sourcePoint" />
            <mxPoint x="554.71" y="400" as="targetPoint" />
          </mxGeometry>
        </mxCell>
        <mxCell id="iftz9GtStMuBRDhdT18l-10" value="" style="edgeStyle=none;rounded=0;html=1;labelBackgroundColor=none;startArrow=none;startFill=0;startSize=5;endArrow=classic;endFill=1;endSize=5;jettySize=auto;orthogonalLoop=1;strokeWidth=1;fontFamily=Verdana;fontSize=12;exitX=0;exitY=0.5;exitDx=0;exitDy=0;strokeColor=#516A8F;arcSize=20;" edge="1" parent="1" source="ptqY07Z1eheuPru2nALc-6" target="iftz9GtStMuBRDhdT18l-9">
          <mxGeometry relative="1" as="geometry">
            <mxPoint x="505" y="210" as="sourcePoint" />
            <mxPoint x="356" y="210" as="targetPoint" />
          </mxGeometry>
        </mxCell>
        <mxCell id="iftz9GtStMuBRDhdT18l-9" value="" style="rhombus;whiteSpace=wrap;html=1;fillColor=#dae8fc;strokeColor=#516A8F;" vertex="1" parent="1">
          <mxGeometry x="380" y="200" width="20" height="20" as="geometry" />
        </mxCell>
      </root>
    </mxGraphModel>
  </diagram>
</mxfile>
